# Created by FreeCAD <https://www.freecad.org>
v 8.370742 -4.304763 -5.141603
v -15.301806 -3.490321 -2.261025
v -15.811467 -2.732522 -2.827341
v 11.206366 0.183039 3.633423
v -8.848023 3.455345 -3.775324
v -7.916333 1.472249 -5.107184
v -4.665113 -0.857281 -5.179701
v 13.355455 -7.765826 -1.139098
v 7.996317 -2.571322 -5.583288
v 0.482607 -4.085527 -1.983047
v 9.634609 -8.260633 -0.130828
v 15.019413 -5.287662 0.604297
v 6.607983 -4.648514 -4.592659
v -13.156310 -3.022467 -2.918256
v -16.098576 -1.526667 -3.112998
v -2.713615 7.939090 -2.273400
v 12.758666 2.912160 -0.590436
v 11.355050 3.601698 0.337870
v 10.497507 3.592515 -0.459427
v 8.927743 0.697816 -4.794685
v 0.203730 -2.846075 1.043633
v 2.281880 -3.870269 -3.251193
v -9.452117 -0.024688 -4.753377
v -10.675577 -0.766054 -4.381299
v 14.261340 -7.239752 -0.006551
v 14.414103 -6.790248 1.321859
v 13.168888 2.160935 0.521248
v 6.250383 1.504572 -5.406191
v 6.837289 -0.378757 -5.430019
v -7.272275 0.064774 -5.199582
v -2.026701 -2.147086 -4.321105
v 0.634561 2.694635 5.531494
v 2.710467 -1.895280 4.640261
v 3.694941 -3.859036 3.392164
v -1.091469 -2.718015 3.633312
v -5.162356 7.999196 -0.744966
v -7.390747 -3.042690 2.375043
v -4.132165 -3.177052 1.953580
v -17.602575 -0.579128 0.151095
v 15.065242 -4.867597 -0.358709
v -2.848718 8.633247 -0.786516
v 9.954318 -4.185016 -5.071186
v -17.556847 -2.122901 -0.680165
v -16.914589 -2.243019 -2.208043
v -16.348129 -3.416308 -1.307179
v -14.863410 -3.939774 -0.392794
v -14.241824 -1.797299 -3.767170
v -0.822227 3.893605 -5.046853
v -5.801562 7.194576 -1.732524
v -3.278237 6.143695 -3.740203
v -2.215011 7.310029 -2.919624
v 1.315333 5.043196 -3.038348
v -0.770067 6.143494 -3.203681
v 12.489550 2.315168 -1.652474
v 9.977925 4.597773 0.755203
v 7.956257 4.044987 3.472663
v 0.390000 -2.778851 3.457887
v 1.969093 -3.610509 3.156676
v -2.366148 -3.733653 1.149334
v 12.410279 -2.827268 -2.967335
v 2.758568 2.786319 5.471038
v 9.557330 -2.557065 -5.115586
v 9.481433 -0.479791 -4.578650
v 10.930637 -6.031399 -4.189257
v 5.395735 -1.491839 -5.893590
v -8.896254 -1.138385 -4.542831
v -7.181039 -2.460434 -3.526755
v -6.453780 1.011902 -5.331280
v 2.908603 0.323871 -5.988399
v 2.163819 2.516509 -5.811808
v 12.945968 -8.142160 0.038739
v 14.518179 -4.326398 2.238151
v 12.130287 2.496429 1.487555
v -5.934769 3.418867 -4.223102
v 8.286295 1.477959 -4.489602
v 0.448644 1.352551 5.390380
v 2.206754 0.666741 5.732536
v 0.843385 3.464822 5.051074
v -2.208358 -1.716814 -4.852238
v 0.028162 -3.966604 -0.957477
v 0.926692 -2.759669 3.888072
v 4.146837 1.083807 5.699170
v -2.232822 -3.148609 2.753327
v -6.370652 7.546987 0.442360
v -17.108398 -0.160538 -1.302283
v -17.407148 -1.827932 1.609338
v 8.585477 -7.949920 1.209126
v -2.159863 8.118380 0.585769
v 5.374719 -2.814922 -5.648774
v -17.134270 -2.781144 0.640596
v -12.255116 -1.696267 -3.978431
v -12.026232 1.548191 -4.032471
v -12.428785 0.234369 -4.258709
v 1.011093 3.839038 -5.260701
v 0.305770 5.651911 -1.869580
v -0.724889 5.401531 -4.195003
v 11.573729 3.448091 1.131257
v -1.654297 -4.038690 -0.849284
v -1.612035 0.901508 -5.782185
v 12.068496 -6.483284 -3.531620
v 2.836805 -1.080581 -5.873391
v -6.725244 5.845420 -2.783180
v -8.250145 6.598286 -0.351913
v -14.823034 -0.257816 -3.468025
v -5.832205 -2.914369 -2.937999
v -9.945189 -2.677583 -2.800798
v 2.783135 4.072864 -4.671526
v 4.332522 4.217224 -4.303646
v 4.282322 3.763832 -4.921299
v 11.895916 -7.723566 -2.214792
v 13.705433 -7.017155 -1.983276
v 14.476795 -5.593353 -1.775447
v 13.863322 1.420429 -0.787512
v 12.788411 -0.662382 2.650772
v 0.667931 -1.151141 -5.643892
v 3.111862 -2.666997 -4.944536
v -2.121336 -3.354239 -2.400080
v 0.291101 0.429276 5.496431
v 0.287394 -0.601786 5.131712
v 1.493452 -4.799554 -0.914679
v -5.200696 6.936739 2.026918
v -3.337466 8.310371 1.026437
v -16.874540 -0.013257 2.286941
v 11.858088 -8.092341 1.636534
v -1.904607 8.161682 -0.938760
v -11.536003 -4.261495 0.099644
v -13.717740 -4.002473 0.980444
v -16.113426 -3.172973 1.526871
v -13.734109 1.917172 -2.992405
v -0.331764 0.165628 -5.961325
v 11.168359 1.719459 -3.197009
v 8.552576 4.768687 0.913508
v 7.365275 2.020752 4.697096
v 10.945452 2.819100 -2.378340
v 4.158712 -5.265947 1.905555
v 2.673411 -5.266503 0.771714
v -2.483850 -4.073146 -0.059643
v -3.408855 -3.838115 -0.364323
v 11.598489 -1.799381 -3.785526
v 8.661183 -1.188321 5.858056
v 12.739423 -5.327201 -3.670090
v 10.266278 -7.095757 -3.086702
v -16.048643 0.879050 -1.941896
v 12.782252 -7.418866 2.810109
v 14.193809 -6.023992 2.620422
v 14.558161 -1.376895 0.838098
v 12.932682 -2.844497 3.939645
v 15.007081 -2.286848 0.083595
v 11.775170 -1.288050 3.583461
v 6.265123 2.269679 -4.622074
v 1.264627 3.769864 4.393236
v 5.918070 -4.155204 4.152097
v -3.405451 -3.627506 0.214072
v -16.684370 -2.218263 2.372491
v 14.036585 -4.122860 -2.461449
v 6.632143 -5.884368 -2.984263
v -11.831829 -3.076612 -2.250718
v 2.360029 4.751888 -3.282053
v 1.591942 4.841535 -0.052789
v 10.330345 3.640338 2.276152
v 9.960457 -0.735451 5.274946
v 4.926415 2.689935 5.082177
v -9.698828 5.527299 1.351259
v 13.275759 -6.839666 3.169469
v 2.064616 4.154271 2.154235
v 7.629157 -4.416051 4.967578
v -7.067742 6.753803 1.627113
v -16.279732 1.877273 1.247464
v -16.213444 -0.954053 3.443272
v 9.984225 -7.385270 3.058425
v 14.690331 -2.152142 -1.110654
v 0.509263 5.332021 -0.031771
v -11.921563 4.231042 -2.252479
v 3.972615 4.608821 -3.231228
v 4.383487 4.683022 -1.366078
v 2.914122 4.750136 -1.037038
v 5.892310 4.617301 -0.412790
v 7.742277 2.474608 -2.676497
v -5.019377 -1.253227 4.406433
v 12.049433 -4.126713 -4.128756
v 4.556976 3.466058 4.316360
v -10.623751 5.512714 -0.852577
v -6.004198 -3.454216 -1.322271
v 6.569228 2.932824 -2.976583
v 12.457545 -6.003029 4.486626
v 13.280848 -5.360637 4.136497
v 13.568398 -1.428853 -2.285233
v -1.238920 4.417195 4.711094
v -3.256722 -0.787020 4.956954
v 9.351841 -7.814044 -1.380462
v 3.677145 -5.519796 -0.658068
v 4.633150 -1.656754 5.107166
v -6.292671 0.464970 5.492589
v -7.863895 -0.910675 4.646060
v -16.490776 1.651690 -0.066689
v 6.037074 -6.434424 1.859312
v 7.908486 -6.811512 2.931313
v -2.877095 6.965764 2.874662
v -12.953649 -3.375408 2.225216
v 10.319524 4.456930 1.251867
v 11.567214 -2.475066 4.965189
v 10.185263 -3.001237 5.863602
v 5.359329 3.981212 3.577019
v -9.394116 5.354597 1.830534
v -14.501012 3.225503 -1.256619
v -14.685033 3.540179 0.208446
v -9.600280 -3.712133 -0.315394
v 11.635909 -6.751998 4.092443
v 12.265975 -3.513484 4.809069
v 4.029459 -5.717287 0.767583
v -10.716341 -3.554731 1.744617
v -15.529712 -1.979617 3.350003
v -1.997796 6.423951 3.138417
v 6.828103 5.282706 1.236952
v -3.165852 0.964079 5.812670
v -0.480707 4.937665 3.507734
v 0.902032 4.688492 1.260787
v 7.936638 -2.397477 5.835914
v -8.774666 -3.647053 0.900419
v -14.934258 3.073915 1.475058
v -13.770001 -1.722566 3.697283
v -12.404330 -2.335336 2.995966
v 4.996188 5.097694 0.464289
v 7.233947 4.830729 3.005352
v 6.533324 5.309468 1.973691
v 2.952029 4.621516 0.746529
v -13.985613 4.033692 -0.499134
v 11.399296 -4.391573 5.524226
v -5.869347 1.739989 5.786571
v -2.286833 5.187663 4.245875
v -3.275035 2.547233 5.691430
v -11.183926 -2.062639 3.802161
v -8.162433 0.480678 5.356383
v 9.612457 -5.958733 4.676458
v -12.916962 -1.328688 4.205606
v -13.497105 4.288976 0.791515
v -9.207295 4.587635 2.466213
v 10.909260 -5.520464 5.182175
v 9.396825 -3.991520 5.682061
v -5.570453 3.915897 4.981237
v -14.672446 2.607102 2.723740
v -7.958961 4.643089 3.441861
v -11.243235 1.224965 5.194391
v -14.744352 0.601858 4.090411
v -13.068209 3.890953 2.181806
v -11.365979 4.200060 2.470023
v -7.003376 3.203051 5.253398
v -11.379994 -0.707186 4.796517
v -10.359305 2.627234 4.809673
v -14.231880 -0.035107 4.443398
v -12.659015 2.272854 4.153437
vn -0.994849 -0.069302 0.073976
vn 0.240708 0.942288 0.232707
vn -0.529725 -0.662443 -0.529680
vn -0.141401 0.652613 -0.744381
vn 0.422721 0.778686 -0.463632
vn -0.007062 0.419455 -0.907749
vn -0.124194 0.512349 -0.849750
vn -0.652718 -0.698860 0.292494
vn 0.181587 0.274598 0.944257
vn -0.116660 -0.349905 -0.929493
vn 0.715406 -0.642918 -0.273590
vn 0.342686 0.572920 -0.744533
vn 0.041490 -0.182426 -0.982344
vn -0.137798 0.136201 0.981051
vn -0.217596 -0.072201 0.973365
vn 0.023235 0.116451 0.992925
vn -0.377004 -0.859902 -0.344145
vn -0.200735 -0.240749 0.949603
vn -0.260932 0.960149 0.100145
vn -0.065761 -0.982146 0.176254
vn 0.966347 0.064459 -0.249034
vn 0.457603 0.883321 0.101707
vn -0.143084 -0.564482 -0.812950
vn 0.046284 -0.237249 -0.970346
vn 0.045634 -0.016113 -0.998828
vn -0.123376 -0.613244 -0.780199
vn 0.070834 -0.399182 -0.914131
vn -0.558679 -0.703737 -0.438899
vn -0.228741 -0.957328 -0.176635
vn -0.765347 -0.581431 -0.276010
vn -0.095701 -0.636375 -0.765420
vn -0.094557 -0.622230 -0.777103
vn -0.355469 -0.294758 -0.886995
vn -0.061612 -0.973605 -0.219769
vn -0.054265 -0.600736 -0.797603
vn -0.567090 -0.315279 -0.760926
vn -0.106354 0.223666 -0.968846
vn -0.283699 0.702509 -0.652683
vn -0.253684 0.658579 -0.708462
vn -0.284439 0.825106 -0.488155
vn -0.245982 0.869518 -0.428288
vn 0.460728 0.786897 -0.410515
vn 0.368035 0.854890 -0.365668
vn 0.469302 0.881405 -0.053676
vn 0.670807 0.560852 -0.485245
vn 0.260229 0.920810 -0.290499
vn 0.463573 0.884987 0.043569
vn 0.625377 0.780031 -0.021349
vn 0.550499 0.822058 -0.145508
vn 0.411479 0.380759 0.828075
vn -0.276238 0.422315 -0.863332
vn -0.659435 -0.702827 0.266796
vn -0.456182 -0.887867 0.059919
vn 0.068456 -0.873025 0.482847
vn -0.133214 -0.927470 0.349360
vn 0.322380 -0.897614 0.300601
vn 0.325029 -0.910742 0.254767
vn 0.467005 0.237246 -0.851834
vn 0.474817 0.217758 -0.852720
vn 0.821609 0.235739 -0.519024
vn -0.009798 0.124951 0.992115
vn 0.354118 -0.243983 -0.902814
vn -0.145074 -0.666728 -0.731045
vn -0.284552 -0.520644 -0.804960
vn -0.366246 0.830106 -0.420461
vn -0.284904 0.702735 -0.651915
vn -0.323723 0.061250 -0.944167
vn -0.324286 0.061002 -0.943990
vn -0.571050 0.368861 -0.733378
vn -0.139427 -0.250697 -0.957973
vn -0.177128 -0.192132 -0.965252
vn -0.068329 -0.662173 -0.746229
vn -0.035561 -0.829188 -0.557838
vn -0.047708 -0.784058 -0.618851
vn -0.113870 -0.620934 -0.775548
vn -0.128286 -0.703600 -0.698921
vn 0.076994 0.825467 -0.559175
vn 0.102175 0.457205 -0.883473
vn 0.128082 0.122767 -0.984136
vn 0.178497 0.352639 -0.918577
vn 0.562841 -0.823801 -0.067537
vn 0.366654 -0.766296 -0.527594
vn 0.937668 -0.332686 -0.100495
vn 0.558239 -0.803283 0.207617
vn 0.930228 -0.366586 0.017071
vn 0.933064 -0.100512 0.345381
vn 0.926865 -0.232717 0.294559
vn 0.962707 0.050090 0.265869
vn 0.920426 0.157380 0.357838
vn 0.693882 0.371682 0.616750
vn 0.736262 0.341447 0.584236
vn 0.732060 0.381689 0.564271
vn 0.247262 0.089262 -0.964828
vn 0.309206 0.677743 -0.667125
vn 0.305263 -0.031074 -0.951761
vn 0.278653 0.212768 -0.936527
vn 0.305453 0.248742 -0.919144
vn 0.184133 0.165069 -0.968941
vn -0.093867 -0.057090 -0.993947
vn -0.447376 -0.763033 0.466514
vn -0.102169 -0.595577 -0.796774
vn -0.114688 -0.562629 -0.818716
vn -0.074687 -0.332312 0.940208
vn -0.488284 -0.864931 -0.116070
vn -0.226276 -0.855243 -0.466217
vn -0.149095 -0.833917 -0.531370
vn 0.051218 -0.989190 0.137401
vn -0.202473 -0.916979 -0.343736
vn -0.124729 -0.575993 0.807883
vn 0.096320 -0.374271 0.922303
vn -0.340133 -0.483293 0.806683
vn -0.193953 -0.765260 0.613808
vn -0.261285 0.960012 0.100533
vn -0.301493 0.793732 0.528291
vn -0.921132 -0.373854 0.108394
vn -0.945212 0.174364 0.275994
vn -0.071763 -0.944280 -0.321224
vn 0.045383 -0.978160 -0.202840
vn 0.032964 -0.998020 0.053562
vn 0.919942 0.018570 -0.391614
vn 0.998487 0.013360 0.053345
vn 0.917069 -0.341373 -0.206032
vn -0.314267 -0.755051 -0.575443
vn 0.283886 -0.178718 -0.942056
vn -0.748698 -0.657055 -0.087918
vn -0.101983 -0.993994 0.039699
vn -0.142442 0.210199 -0.967226
vn -0.214705 0.473013 -0.854495
vn -0.259845 0.540883 -0.799954
vn -0.086193 0.494239 -0.865042
vn -0.174183 0.245554 -0.953605
vn 0.525117 0.748883 -0.404261
vn 0.665622 0.690879 -0.282195
vn 0.428478 0.732636 -0.528820
vn 0.257583 0.915555 -0.308884
vn 0.475839 0.709706 -0.519515
vn 0.648458 0.334636 -0.683755
vn 0.805935 0.583967 0.097220
vn 0.464268 0.423105 0.778099
vn -0.127875 0.474989 -0.870651
vn 0.302181 0.552295 -0.776954
vn -0.351981 -0.814334 0.461486
vn -0.194395 -0.742010 0.641586
vn -0.342159 -0.817473 0.463321
vn 0.234497 -0.958070 0.164657
vn 0.264250 -0.934929 0.236811
vn -0.233955 -0.960454 0.150975
vn -0.182564 0.443390 -0.877540
vn -0.083726 0.258606 -0.962348
vn 0.450867 0.200578 -0.869763
vn 0.151993 0.729920 0.666420
vn 0.120092 0.304675 0.944855
vn -0.036888 -0.181255 -0.982744
vn -0.020810 -0.080540 -0.996534
vn -0.187498 -0.889362 -0.416989
vn -0.237554 -0.872421 -0.427142
vn -0.359091 0.899668 -0.248296
vn -0.701092 0.323818 -0.635305
vn -0.204854 -0.669011 -0.714464
vn -0.182460 -0.269811 -0.945468
vn -0.199404 -0.026942 -0.979547
vn -0.153038 -0.005156 -0.988207
vn 0.066319 0.801774 -0.593936
vn 0.157049 -0.955262 -0.250619
vn 0.858745 -0.423031 -0.289139
vn 0.729318 -0.527896 0.435226
vn 0.533621 -0.810078 0.242944
vn 0.806413 0.244625 0.538383
vn 0.651154 0.568892 0.502355
vn 0.360294 0.858883 -0.364016
vn -0.099656 -0.302223 -0.948014
vn -0.109687 0.050820 -0.992666
vn -0.099215 -0.303754 -0.947570
vn -0.023054 -0.845969 -0.532734
vn 0.978244 -0.150525 0.142763
vn 0.001320 0.528991 0.848627
vn 0.126858 0.755738 0.642470
vn 0.092062 0.879555 0.466805
vn -0.388683 -0.847754 -0.360886
vn -0.324921 -0.688432 -0.648451
vn -0.307808 -0.950250 -0.047746
vn -0.172347 -0.793401 -0.583791
vn -0.148343 -0.770357 -0.620117
vn -0.025394 -0.396273 0.917781
vn -0.105565 -0.519836 0.847719
vn -0.075379 -0.561513 0.824027
vn -0.037381 -0.998830 0.030696
vn -0.031055 -0.996053 0.083156
vn -0.117433 -0.521766 0.844967
vn 0.049092 -0.777202 0.627333
vn -0.949711 0.126180 -0.286579
vn -0.715618 -0.588011 0.377007
vn -0.887366 0.424734 -0.179393
vn -0.897106 0.393120 0.201639
vn -0.890494 0.450222 0.065724
vn 0.876365 0.038371 -0.480116
vn 0.319469 0.802355 0.504148
vn 0.337578 0.793980 0.505605
vn -0.271396 -0.610913 -0.743727
vn 0.407364 0.074514 -0.910221
vn -0.390464 -0.913925 0.110807
vn -0.439987 -0.890875 0.112929
vn -0.916107 0.085146 -0.391788
vn 0.072008 -0.908492 -0.411651
vn -0.281688 -0.940082 0.192086
vn 0.241448 -0.700733 -0.671323
vn -0.796573 0.177251 -0.577974
vn -0.453103 0.284321 -0.844902
vn -0.252347 0.030303 -0.967162
vn 0.001125 0.238377 -0.971172
vn 0.154008 0.667800 -0.728234
vn 0.475893 0.714390 -0.513003
vn 0.523940 0.851708 0.008987
vn 0.493737 0.581479 -0.646611
vn 0.663252 0.710433 0.235332
vn 0.604799 0.564150 0.562097
vn 0.568662 0.646106 0.509088
vn 0.153422 0.792498 -0.590262
vn 0.040000 0.837851 -0.544431
vn 0.462397 0.576603 0.673586
vn 0.574956 0.421083 0.701508
vn 0.626139 0.380971 0.680302
vn 0.591289 0.423979 0.686017
vn -0.180265 0.339362 -0.923222
vn -0.253122 0.554030 -0.793082
vn 0.281509 0.609078 -0.741469
vn -0.047676 0.869226 -0.492111
vn -0.290599 -0.877673 0.381107
vn -0.375927 -0.870009 0.319005
vn -0.323135 -0.902457 0.284878
vn 0.545568 0.103958 -0.831594
vn 0.410283 -0.110067 -0.905291
vn 0.073373 -0.739248 -0.669425
vn 0.100019 -0.730806 -0.675217
vn 0.374802 -0.321662 -0.869515
vn -0.073768 -0.513386 -0.854981
vn -0.420901 0.817320 -0.393485
vn -0.440166 0.879912 0.178909
vn -0.525124 0.424236 -0.737746
vn -0.088597 -0.265358 -0.960071
vn -0.135577 -0.117038 -0.983830
vn -0.066386 -0.857963 -0.509405
vn -0.065122 -0.944342 -0.322456
vn -0.039888 -0.924430 -0.379259
vn 0.592941 0.625386 -0.507260
vn 0.019200 0.900582 -0.434261
vn 0.093716 0.944922 -0.313590
vn 0.170302 0.182716 -0.968304
vn 0.150889 0.059507 -0.986758
vn 0.688955 -0.275385 -0.670451
vn 0.596038 -0.723688 0.347872
vn 0.335082 -0.906627 0.256413
vn 0.890266 0.373004 0.261331
vn 0.592538 0.202629 0.779641
vn 0.412346 0.483375 0.772217
vn 0.931615 0.325440 0.161810
vn -0.011890 0.492405 -0.870285
vn 0.420698 0.811821 -0.404919
vn -0.010435 -0.573295 0.819282
vn -0.200085 -0.917197 -0.344551
vn -0.316476 -0.680911 0.660457
vn -0.433346 -0.718164 0.544474
vn -0.236600 -0.715719 0.657089
vn -0.231795 0.758246 0.609372
vn -0.420541 0.903386 -0.083901
vn -0.185078 0.863481 0.469197
vn 0.009749 -0.928437 0.371363
vn 0.037398 -0.963489 0.265124
vn -0.220150 -0.804629 0.551458
vn -0.602042 -0.700101 0.383933
vn -0.848122 0.052053 0.527238
vn -0.762509 -0.228601 0.605245
vn -0.111079 -0.893271 -0.435578
vn -0.086313 -0.932735 0.350078
vn 0.726329 -0.099820 -0.680060
vn 0.730347 0.668309 0.141267
vn 0.755639 0.654291 0.030218
vn -0.271503 -0.765132 -0.583832
vn -0.286801 -0.818268 -0.498179
vn 0.196970 -0.865266 -0.460996
vn 0.112713 -0.947112 -0.300459
vn 0.094505 -0.612672 -0.784666
vn -0.356498 0.526148 -0.772060
vn -0.358881 0.367317 -0.858069
vn 0.290533 0.891628 -0.347261
vn 0.239531 0.962912 -0.124196
vn 0.017205 0.564788 -0.825057
vn 0.276866 0.960109 0.039200
vn 0.411871 0.904357 0.111808
vn 0.654459 0.297616 -0.695060
vn 0.253025 0.420876 0.871115
vn 0.858317 0.318202 0.402542
vn -0.170975 -0.960053 -0.221509
vn -0.256803 -0.907647 0.332009
vn 0.616167 -0.131508 -0.776559
vn 0.568866 0.202837 -0.797025
vn 0.051782 0.713803 0.698430
vn 0.257346 0.444020 0.858265
vn -0.217729 0.895663 0.387790
vn -0.489114 0.862979 0.126628
vn 0.514210 0.609004 -0.603906
vn 0.621351 0.680177 -0.388949
vn -0.012052 0.076205 -0.997019
vn -0.004353 -0.081393 -0.996673
vn -0.090851 -0.298043 -0.950219
vn 0.353545 -0.703618 -0.616383
vn 0.553527 -0.408187 -0.725942
vn 0.702809 -0.390985 0.594298
vn 0.847494 -0.042797 0.529076
vn 0.786634 0.155594 0.597493
vn -0.073841 -0.958725 -0.274579
vn 0.086680 -0.028555 0.995827
vn 0.092916 0.508701 0.855914
vn 0.274147 0.793410 0.543456
vn 0.094664 0.974963 0.201211
vn -0.315148 -0.947540 -0.053379
vn -0.432550 -0.507360 0.745309
vn -0.402981 -0.659440 0.634622
vn -0.261373 -0.247893 0.932863
vn -0.008819 -0.995213 -0.097336
vn -0.753728 0.525735 -0.394331
vn -0.347756 -0.729570 0.588892
vn -0.533303 -0.422211 0.733025
vn 0.031924 -0.877535 0.478449
vn -0.407510 -0.906694 -0.108818
vn -0.389804 -0.891602 -0.230432
vn -0.262778 -0.849201 0.458045
vn 0.149738 -0.875177 -0.460048
vn 0.061466 -0.906043 0.418697
vn -0.169348 -0.834500 0.524339
vn 0.079385 -0.916343 -0.392445
vn 0.090073 0.994163 -0.059393
vn 0.043406 0.999008 -0.009933
vn 0.058781 0.998177 -0.013729
vn 0.397391 0.863927 0.309370
vn -0.063089 0.920458 -0.385716
vn 0.136965 0.973727 0.181925
vn 0.408552 0.715788 0.566333
vn 0.234226 0.794358 -0.560476
vn 0.248471 0.414431 0.875505
vn 0.408402 0.713803 0.568940
vn -0.042398 -0.691383 0.721243
vn 0.572822 0.452058 -0.683753
vn 0.385301 0.126748 -0.914045
vn -0.007257 0.950419 0.310888
vn -0.427912 0.847037 0.315308
vn -0.536667 0.542669 -0.646141
vn -0.022421 -0.947501 -0.318966
vn 0.546660 0.828829 -0.119188
vn 0.640795 0.076443 -0.763897
vn 0.616929 -0.432172 0.657743
vn 0.336115 -0.686462 0.644823
vn 0.320695 -0.692126 0.646620
vn 0.723943 0.152805 0.672724
vn 0.944917 0.238968 -0.223666
vn 0.770784 0.232094 -0.593316
vn 0.275023 0.807141 0.522385
vn 0.037777 0.078893 0.996167
vn 0.421906 0.856346 0.297769
vn 0.034610 -0.333393 0.942152
vn -0.275204 -0.344223 0.897649
vn -0.034102 0.002133 0.999416
vn 0.007554 -0.530316 0.847766
vn 0.039189 -0.772049 0.634354
vn 0.012782 -0.808092 0.588918
vn 0.032435 -0.874572 0.483810
vn -0.438734 -0.898474 -0.016041
vn -0.445308 -0.858264 0.255113
vn -0.393277 -0.830529 0.394404
vn 0.763307 0.173361 -0.622341
vn 0.724202 0.633204 0.273102
vn 0.578410 0.696085 0.425333
vn 0.010097 -0.920554 0.390485
vn -0.480350 0.585192 -0.653310
vn 0.452163 0.266041 0.851335
vn 0.315253 0.267811 0.910435
vn 0.002947 0.818967 0.573833
vn -0.403946 0.748147 0.526406
vn -0.315159 0.811148 0.492659
vn -0.703846 0.582829 -0.406094
vn -0.685398 0.689485 -0.234182
vn 0.546462 0.823364 -0.153135
vn 0.608007 0.045448 0.792629
vn 0.586866 0.568405 0.576632
vn 0.623110 0.311431 0.717458
vn 0.019715 0.447304 0.894165
vn -0.021419 -0.438056 0.898693
vn -0.097905 -0.582598 0.806842
vn -0.484244 -0.793061 0.369543
vn -0.485626 -0.598356 0.637289
vn -0.298757 0.518616 0.801113
vn -0.360792 0.690941 0.626442
vn -0.215851 0.687381 0.693481
vn 0.087956 -0.947969 0.305971
vn 0.072663 -0.997348 0.004043
vn -0.002392 -0.586467 0.809969
vn -0.068201 -0.465209 0.882570
vn -0.178803 -0.796002 0.578282
vn -0.722570 0.691293 -0.002625
vn -0.697748 0.501030 0.511974
vn -0.650247 0.443648 0.616730
vn -0.662141 0.349479 0.662897
vn -0.671142 0.728711 0.136194
vn -0.111685 -0.757997 0.642625
vn -0.245799 -0.754408 0.608647
vn 0.165979 0.636165 0.753489
vn 0.247884 -0.961717 -0.116850
vn -0.405362 0.829682 -0.383809
vn 0.119738 0.990413 0.068878
vn 0.247470 0.938864 0.239360
vn 0.175773 0.874342 -0.452361
vn 0.299260 0.950359 0.085216
vn 0.195404 0.972844 -0.124061
vn 0.258608 0.931295 0.256539
vn 0.021276 0.525427 0.850573
vn -0.212553 0.823254 0.526378
vn -0.316305 0.831290 0.457065
vn -0.324603 0.936870 0.130032
vn -0.564853 0.440664 0.697679
vn -0.109641 0.618320 0.778241
vn 0.512155 -0.201296 0.834971
vn 0.166882 -0.596327 0.785204
vn 0.491967 0.203794 0.846425
vn 0.416933 0.840062 -0.347077
vn -0.028338 0.488160 0.872294
vn 0.344811 0.932345 0.108800
vn -0.023158 0.953104 0.301755
vn -0.022078 -0.438022 0.898693
vn -0.385005 -0.623397 0.680549
vn -0.280019 -0.343043 0.896611
vn -0.114297 0.701725 0.703220
vn -0.227986 0.694898 0.682011
vn -0.181182 -0.815253 0.550032
vn -0.649415 0.657535 0.381980
vn -0.482950 0.093900 0.870598
vn -0.318382 -0.294215 0.901149
vn -0.203443 -0.373192 0.905173
vn -0.008021 -0.783881 0.620859
vn 0.138038 0.642744 0.753542
vn 0.106643 -0.931717 0.347175
vn 0.114549 -0.629816 0.768252
vn 0.112536 -0.629291 0.768978
vn -0.046076 -0.676978 0.734560
vn -0.472441 0.744060 -0.472412
vn -0.004589 0.975604 -0.219488
vn -0.216429 0.973429 0.074798
vn 0.082429 0.907154 -0.412647
vn 0.340967 0.805839 -0.484112
vn -0.014840 -0.009417 0.999846
vn -0.215252 0.973052 0.082684
vn -0.404962 0.913920 -0.027492
vn -0.706624 0.668366 -0.232312
vn 0.275148 -0.386203 0.880421
vn -0.055438 -0.679803 0.731296
vn 0.012535 0.077211 0.996936
vn 0.489040 0.645068 0.587135
vn 0.535992 0.809364 0.240088
vn -0.234432 -0.462727 0.854942
vn -0.050124 -0.141341 0.988691
vn -0.067631 -0.202786 0.976885
vn -0.072851 -0.201049 0.976868
vn -0.585332 0.791424 0.176164
vn -0.021079 -0.772857 0.634230
vn -0.072950 0.995193 -0.065339
vn 0.220830 0.932676 -0.285220
vn 0.476440 0.207474 0.854377
vn -0.547402 0.835822 0.041869
vn 0.012244 0.476648 0.879009
vn 0.011958 -0.452629 0.891619
vn 0.000273 -0.591476 0.806322
vn -0.202208 -0.793205 0.574402
vn -0.477032 0.785741 0.393766
vn -0.181675 -0.463302 0.867379
vn 0.035589 -0.207547 0.977578
vn -0.336637 0.872685 0.353689
vn -0.239357 0.783745 0.573108
vn -0.398677 0.790356 0.465181
vn -0.141220 0.792389 0.593444
vn 0.016070 -0.296324 0.954952
vn -0.033805 0.415066 0.909163
vn -0.058829 0.301234 0.951734
vn -0.221436 0.703107 0.675726
vn -0.066369 -0.596422 0.799923
vn -0.092100 -0.167596 0.981544
vn -0.129645 0.249255 0.959721
vn -0.497680 0.781075 0.377143
vn -0.288812 0.732381 0.616608
vn -0.098201 -0.194043 0.976066
vn -0.436740 0.517275 0.735992
vn -0.338157 0.691841 0.637969
vn -0.199468 -0.369585 0.907535
vn -0.210610 0.708093 0.673979
vn -0.164162 -0.187794 0.968393
vn -0.183425 0.365939 0.912384
vn -0.240902 0.725127 0.645102
vn -0.330523 0.239919 0.912794
vn -0.339367 0.391253 0.855425
vn -0.308371 0.427525 0.849782
f 39//1 43//1 86//1
f 88//2 41//2 122//2
f 45//3 44//3 2//3
f 16//4 51//4 50//4
f 18//5 19//5 55//5
f 6//6 74//6 68//6
f 6//7 5//7 74//7
f 136//8 58//8 21//8
f 82//9 162//9 61//9
f 66//10 30//10 7//10
f 8//11 111//11 25//11
f 20//12 28//12 75//12
f 9//13 89//13 65//13
f 118//14 77//14 76//14
f 76//15 77//15 32//15
f 61//16 32//16 77//16
f 191//17 22//17 156//17
f 192//18 82//18 33//18
f 36//19 84//19 122//19
f 11//20 124//20 87//20
f 40//21 171//21 148//21
f 41//22 88//22 125//22
f 13//23 89//23 1//23
f 89//24 9//24 1//24
f 1//25 62//25 42//25
f 1//26 64//26 13//26
f 1//27 42//27 64//27
f 2//28 44//28 3//28
f 45//29 2//29 46//29
f 43//30 44//30 45//30
f 3//31 14//31 2//31
f 3//32 47//32 14//32
f 3//33 15//33 47//33
f 2//34 126//34 46//34
f 47//35 91//35 14//35
f 15//36 3//36 44//36
f 94//37 130//37 48//37
f 102//38 49//38 16//38
f 16//39 50//39 102//39
f 36//40 16//40 49//40
f 41//41 16//41 36//41
f 16//42 125//42 51//42
f 125//43 16//43 41//43
f 52//44 53//44 95//44
f 17//45 113//45 54//45
f 18//46 17//46 19//46
f 18//47 97//47 17//47
f 18//48 200//48 97//48
f 18//49 55//49 200//49
f 4//50 56//50 133//50
f 50//51 74//51 102//51
f 21//52 120//52 136//52
f 58//53 57//53 21//53
f 21//54 98//54 80//54
f 59//55 83//55 38//55
f 59//56 21//56 83//56
f 21//57 59//57 98//57
f 63//58 139//58 62//58
f 62//59 139//59 180//59
f 139//60 60//60 180//60
f 61//61 77//61 82//61
f 64//62 42//62 141//62
f 64//63 142//63 13//63
f 116//64 101//64 89//64
f 173//65 182//65 49//65
f 173//66 49//66 102//66
f 104//67 47//67 15//67
f 47//68 104//68 93//68
f 104//69 15//69 143//69
f 24//70 23//70 66//70
f 23//71 24//71 93//71
f 66//72 7//72 67//72
f 67//73 31//73 105//73
f 67//74 79//74 31//74
f 67//75 7//75 79//75
f 106//76 66//76 67//76
f 109//77 94//77 107//77
f 109//78 70//78 94//78
f 70//79 28//79 69//79
f 28//80 70//80 109//80
f 71//81 8//81 25//81
f 8//82 110//82 111//82
f 25//83 40//83 12//83
f 25//84 26//84 71//84
f 25//85 12//85 26//85
f 12//86 72//86 145//86
f 12//87 145//87 26//87
f 148//88 72//88 12//88
f 72//89 148//89 146//89
f 27//90 73//90 114//90
f 27//91 114//91 146//91
f 114//92 147//92 146//92
f 29//93 28//93 20//93
f 28//94 150//94 75//94
f 20//95 63//95 29//95
f 29//96 62//96 9//96
f 29//97 63//97 62//97
f 65//98 29//98 9//98
f 30//99 68//99 99//99
f 120//100 21//100 80//100
f 79//101 7//101 115//101
f 79//102 115//102 116//102
f 118//103 119//103 77//103
f 80//104 10//104 120//104
f 22//105 10//105 31//105
f 117//106 31//106 10//106
f 10//107 80//107 98//107
f 10//108 98//108 117//108
f 192//109 33//109 34//109
f 77//110 33//110 82//110
f 152//111 192//111 34//111
f 34//112 81//112 58//112
f 122//113 41//113 36//113
f 84//114 121//114 122//114
f 90//115 86//115 43//115
f 39//116 86//116 123//116
f 11//117 190//117 110//117
f 11//118 110//118 71//118
f 11//119 71//119 124//119
f 40//120 112//120 171//120
f 40//121 148//121 12//121
f 40//122 25//122 112//122
f 13//123 156//123 22//123
f 1//124 9//124 62//124
f 43//125 45//125 90//125
f 46//126 126//126 127//126
f 93//127 92//127 23//127
f 6//128 92//128 5//128
f 5//129 92//129 173//129
f 94//130 48//130 96//130
f 94//131 70//131 130//131
f 51//132 125//132 53//132
f 53//133 125//133 95//133
f 53//134 52//134 96//134
f 17//135 134//135 19//135
f 17//136 54//136 134//136
f 54//137 113//137 131//137
f 113//138 17//138 27//138
f 4//139 160//139 56//139
f 5//140 102//140 74//140
f 131//141 20//141 75//141
f 58//142 136//142 135//142
f 135//143 34//143 58//143
f 57//144 58//144 81//144
f 21//145 35//145 83//145
f 59//146 137//146 98//146
f 59//147 38//147 153//147
f 74//148 48//148 68//148
f 48//149 99//149 68//149
f 139//150 63//150 131//150
f 61//151 162//151 181//151
f 162//152 82//152 140//152
f 89//153 101//153 65//153
f 65//154 101//154 69//154
f 22//155 120//155 10//155
f 120//156 22//156 191//156
f 182//157 103//157 49//157
f 15//158 85//158 143//158
f 66//159 106//159 24//159
f 30//160 66//160 23//160
f 30//161 23//161 6//161
f 68//162 30//162 6//162
f 107//163 108//163 109//163
f 71//164 110//164 8//164
f 25//165 111//165 112//165
f 164//166 26//166 145//166
f 26//167 144//167 71//167
f 147//168 72//168 146//168
f 73//169 27//169 97//169
f 75//170 150//170 178//170
f 30//171 130//171 7//171
f 30//172 99//172 130//172
f 115//173 7//173 130//173
f 105//174 31//174 117//174
f 76//175 32//175 118//175
f 32//176 61//176 78//176
f 61//177 181//177 78//177
f 181//178 151//178 78//178
f 191//179 156//179 190//179
f 22//180 116//180 13//180
f 120//181 191//181 136//181
f 31//182 79//182 22//182
f 22//183 79//183 116//183
f 33//184 77//184 119//184
f 33//185 119//185 81//185
f 33//186 81//186 34//186
f 35//187 21//187 57//187
f 35//188 57//188 81//188
f 35//189 81//189 119//189
f 38//190 179//190 37//190
f 43//191 39//191 85//191
f 86//192 90//192 154//192
f 39//193 195//193 85//193
f 168//194 39//194 123//194
f 195//195 39//195 168//195
f 171//196 112//196 155//196
f 88//197 122//197 198//197
f 213//198 88//198 198//198
f 13//199 116//199 89//199
f 42//200 62//200 180//200
f 128//201 45//201 46//201
f 90//202 45//202 128//202
f 44//203 43//203 85//203
f 2//204 14//204 126//204
f 46//205 127//205 128//205
f 91//206 24//206 14//206
f 15//207 44//207 85//207
f 92//208 93//208 129//208
f 23//209 92//209 6//209
f 48//210 130//210 99//210
f 94//211 96//211 107//211
f 53//212 96//212 51//212
f 52//213 95//213 159//213
f 134//214 54//214 131//214
f 27//215 17//215 97//215
f 97//216 160//216 73//216
f 200//217 160//217 97//217
f 19//218 178//218 55//218
f 132//219 55//219 178//219
f 4//220 133//220 161//220
f 160//221 4//221 73//221
f 4//222 114//222 73//222
f 4//223 161//223 201//223
f 74//224 50//224 48//224
f 102//225 5//225 173//225
f 131//226 75//226 134//226
f 75//227 178//227 134//227
f 136//228 210//228 135//228
f 59//229 153//229 138//229
f 137//230 59//230 138//230
f 131//231 63//231 20//231
f 42//232 180//232 141//232
f 64//233 110//233 142//233
f 64//234 100//234 110//234
f 100//235 64//235 141//235
f 115//236 101//236 116//236
f 36//237 49//237 103//237
f 103//238 182//238 163//238
f 129//239 104//239 143//239
f 91//240 47//240 24//240
f 24//241 47//241 93//241
f 67//242 105//242 106//242
f 106//243 105//243 183//243
f 106//244 183//244 207//244
f 109//245 108//245 28//245
f 107//246 158//246 108//246
f 174//247 108//247 158//247
f 69//248 29//248 65//248
f 69//249 28//249 29//249
f 111//250 141//250 112//250
f 26//251 164//251 144//251
f 71//252 144//252 124//252
f 146//253 113//253 27//253
f 114//254 4//254 149//254
f 114//255 149//255 147//255
f 146//256 148//256 113//256
f 50//257 96//257 48//257
f 150//258 184//258 178//258
f 119//259 189//259 35//259
f 117//260 98//260 138//260
f 196//261 152//261 34//261
f 196//262 34//262 135//262
f 83//263 35//263 189//263
f 121//264 198//264 122//264
f 103//265 84//265 36//265
f 121//266 84//266 167//266
f 38//267 37//267 219//267
f 38//268 219//268 153//268
f 179//269 38//269 83//269
f 90//270 128//270 154//270
f 123//271 86//271 169//271
f 86//272 154//272 169//272
f 110//273 190//273 142//273
f 87//274 124//274 170//274
f 141//275 155//275 112//275
f 125//276 88//276 172//276
f 125//277 172//277 95//277
f 13//278 142//278 156//278
f 142//279 190//279 156//279
f 14//280 157//280 126//280
f 14//281 106//281 157//281
f 14//282 24//282 106//282
f 92//283 129//283 173//283
f 129//284 93//284 104//284
f 107//285 96//285 158//285
f 96//286 52//286 158//286
f 50//287 51//287 96//287
f 52//288 159//288 158//288
f 95//289 172//289 159//289
f 131//290 113//290 187//290
f 133//291 162//291 161//291
f 4//292 201//292 149//292
f 137//293 138//293 98//293
f 153//294 183//294 138//294
f 60//295 139//295 187//295
f 187//296 139//296 131//296
f 56//297 181//297 162//297
f 56//298 162//298 133//298
f 181//299 203//299 226//299
f 103//300 163//300 84//300
f 150//301 28//301 108//301
f 150//302 108//302 184//302
f 70//303 69//303 130//303
f 130//304 69//304 101//304
f 130//305 101//305 115//305
f 111//306 110//306 100//306
f 111//307 100//307 141//307
f 164//308 145//308 186//308
f 145//309 72//309 186//309
f 72//310 147//310 186//310
f 117//311 138//311 105//311
f 118//312 32//312 215//312
f 78//313 188//313 32//313
f 188//314 78//314 151//314
f 151//315 181//315 165//315
f 191//316 210//316 136//316
f 192//317 152//317 166//317
f 152//318 196//318 166//318
f 192//319 218//319 82//319
f 153//320 219//320 183//320
f 85//321 195//321 143//321
f 128//322 212//322 154//322
f 154//323 212//323 169//323
f 124//324 144//324 170//324
f 11//325 87//325 191//325
f 191//326 190//326 11//326
f 197//327 87//327 170//327
f 157//328 207//328 126//328
f 126//329 199//329 127//329
f 199//330 128//330 127//330
f 157//331 106//331 207//331
f 158//332 175//332 174//332
f 158//333 176//333 175//333
f 158//334 159//334 176//334
f 172//335 217//335 159//335
f 134//336 178//336 19//336
f 55//337 132//337 200//337
f 200//338 224//338 160//338
f 177//339 132//339 178//339
f 161//340 162//340 140//340
f 160//341 224//341 56//341
f 189//342 179//342 83//342
f 180//343 60//343 155//343
f 60//344 187//344 155//344
f 181//345 226//345 165//345
f 163//346 167//346 84//346
f 143//347 205//347 129//347
f 105//348 138//348 183//348
f 174//349 184//349 108//349
f 141//350 180//350 155//350
f 186//351 185//351 164//351
f 164//352 185//352 144//352
f 144//353 185//353 208//353
f 147//354 209//354 186//354
f 113//355 148//355 171//355
f 113//356 171//356 187//356
f 188//357 151//357 216//357
f 32//358 231//358 215//358
f 216//359 151//359 165//359
f 119//360 118//360 215//360
f 192//361 166//361 218//361
f 82//362 218//362 140//362
f 179//363 193//363 194//363
f 179//364 232//364 37//364
f 211//365 37//365 232//365
f 170//366 144//366 208//366
f 191//367 87//367 210//367
f 87//368 196//368 210//368
f 87//369 197//369 196//369
f 155//370 187//370 171//370
f 88//371 216//371 172//371
f 88//372 213//372 216//372
f 126//373 211//373 199//373
f 173//374 129//374 205//374
f 201//375 161//375 202//375
f 161//376 140//376 202//376
f 56//377 203//377 181//377
f 167//378 163//378 204//378
f 163//379 246//379 204//379
f 205//380 143//380 195//380
f 205//381 195//381 206//381
f 184//382 174//382 175//382
f 228//383 186//383 209//383
f 149//384 201//384 147//384
f 209//385 147//385 201//385
f 32//386 188//386 231//386
f 189//387 119//387 215//387
f 189//388 193//388 179//388
f 210//389 196//389 135//389
f 166//390 196//390 197//390
f 198//391 121//391 230//391
f 167//392 204//392 242//392
f 167//393 242//393 121//393
f 37//394 211//394 219//394
f 219//395 207//395 183//395
f 179//396 194//396 232//396
f 194//397 193//397 233//397
f 128//398 199//398 212//398
f 195//399 168//399 206//399
f 168//400 123//400 241//400
f 123//401 244//401 241//401
f 123//402 169//402 244//402
f 168//403 220//403 206//403
f 234//404 170//404 208//404
f 197//405 170//405 234//405
f 213//406 198//406 230//406
f 207//407 219//407 126//407
f 173//408 227//408 182//408
f 176//409 159//409 226//409
f 159//410 217//410 165//410
f 214//411 132//411 177//411
f 132//412 214//412 225//412
f 132//413 225//413 200//413
f 200//414 225//414 224//414
f 56//415 224//415 203//415
f 203//416 224//416 225//416
f 203//417 225//417 226//417
f 182//418 236//418 163//418
f 204//419 237//419 242//419
f 237//420 204//420 246//420
f 185//421 186//421 228//421
f 185//422 238//422 208//422
f 228//423 209//423 201//423
f 184//424 175//424 178//424
f 188//425 230//425 231//425
f 217//426 216//426 165//426
f 165//427 226//427 159//427
f 189//428 215//428 193//428
f 234//429 166//429 197//429
f 218//430 166//430 239//430
f 230//431 121//431 240//431
f 240//432 121//432 242//432
f 232//433 222//433 211//433
f 168//434 241//434 220//434
f 169//435 250//435 244//435
f 169//436 212//436 250//436
f 212//437 235//437 250//437
f 212//438 221//438 235//438
f 188//439 213//439 230//439
f 126//440 219//440 211//440
f 199//441 211//441 222//441
f 221//442 199//442 222//442
f 199//443 221//443 212//443
f 173//444 205//444 227//444
f 176//445 223//445 175//445
f 176//446 226//446 223//446
f 177//447 223//447 214//447
f 177//448 178//448 175//448
f 140//449 218//449 202//449
f 226//450 225//450 223//450
f 227//451 236//451 182//451
f 205//452 206//452 227//452
f 228//453 238//453 185//453
f 238//454 234//454 208//454
f 215//455 231//455 229//455
f 188//456 216//456 213//456
f 216//457 217//457 172//457
f 239//458 166//458 234//458
f 218//459 239//459 202//459
f 193//460 215//460 229//460
f 233//461 193//461 229//461
f 206//462 220//462 236//462
f 222//463 235//463 221//463
f 214//464 223//464 225//464
f 223//465 177//465 175//465
f 202//466 228//466 201//466
f 206//467 236//467 227//467
f 240//468 231//468 230//468
f 248//469 194//469 233//469
f 194//470 248//470 232//470
f 232//471 235//471 222//471
f 220//472 241//472 236//472
f 234//473 238//473 239//473
f 202//474 239//474 228//474
f 236//475 245//475 163//475
f 246//476 163//476 245//476
f 237//477 249//477 242//477
f 237//478 246//478 249//478
f 228//479 239//479 238//479
f 231//480 240//480 247//480
f 231//481 247//481 229//481
f 242//482 247//482 240//482
f 248//483 235//483 232//483
f 233//484 229//484 243//484
f 229//485 247//485 243//485
f 236//486 241//486 245//486
f 246//487 251//487 249//487
f 248//488 233//488 243//488
f 241//489 244//489 251//489
f 241//490 251//490 245//490
f 235//491 248//491 250//491
f 249//492 247//492 242//492
f 248//493 243//493 250//493
f 243//494 247//494 249//494
f 251//495 246//495 245//495
f 244//496 250//496 243//496
f 244//497 243//497 251//497
f 251//498 243//498 249//498
