v 12.306328 -4.458031 5.274809
v 13.847184 -7.484444 -1.315703
v 3.651443 -2.161521 -5.686257
v -15.492218 -3.743935 -2.010796
v -15.489480 -1.609610 -3.542448
v 0.203730 -2.846075 1.043633
v 13.502201 2.415635 -0.310210
v 2.219876 -3.008686 3.833086
v -2.566721 -2.923355 2.982831
v 0.248081 5.065237 -4.355287
v 10.424280 -4.930131 -5.058001
v 0.073898 1.791524 -6.177393
v 7.782879 1.074441 -5.064600
v 2.650900 0.159912 5.576427
v 1.105055 -3.123700 -3.855323
v 0.382991 -4.140925 -1.455038
v -17.554287 -1.598051 -1.795148
v -9.945189 -2.677583 -2.800798
v 4.175240 4.051914 -4.660699
v -17.478521 -0.053804 1.122463
v 11.148727 -8.670327 0.742850
v -17.182531 -2.470039 1.771078
v -12.007336 3.067487 -3.343145
v 10.982804 2.376169 -2.988562
v 10.532542 4.343459 1.235614
v 3.247109 -5.416924 0.991043
v 14.356035 -4.722755 -2.540815
v 9.926069 -2.708955 6.065216
v 13.506133 -7.140000 3.023909
v 15.317036 -3.495788 0.675168
v -0.849780 4.335728 4.818264
v -2.713269 -3.898001 -0.284220
v 10.821384 -7.672886 -2.560443
v 3.403457 2.775837 5.380421
v -6.831120 7.019616 1.124148
v -15.434421 3.376831 0.166808
v 10.048819 -6.478821 4.596368
v 1.347631 4.701427 0.263711
v 4.139254 4.736232 -1.354562
v -2.874325 8.657910 -1.389494
v 7.484037 2.421879 -2.860468
v -2.963081 8.194106 1.597171
v -15.694540 -1.155096 3.958675
v -11.167000 -4.099141 0.172843
v 7.892685 5.196229 2.316276
v -5.006209 0.762787 5.956823
v -13.245095 -3.737868 1.808636
v -14.153925 2.942825 2.870901
v -9.726158 2.289953 5.391688
vn -0.991824 -0.100330 0.078859
vn -0.591355 -0.707947 0.386147
vn -0.328577 -0.830051 -0.450614
vn -0.303134 0.942986 0.137429
vn -0.568556 -0.479149 -0.668701
vn 0.568299 0.467342 0.677221
vn -0.605470 -0.723538 0.331511
vn 0.106248 -0.879704 0.463499
vn 0.215363 -0.938384 0.270284
vn 0.516690 0.226383 -0.825701
vn -0.210177 -0.674707 -0.707528
vn -0.086111 -0.829869 -0.551274
vn 0.056748 0.483241 -0.873646
vn 0.164695 0.325840 -0.930969
vn 0.466943 -0.877866 0.106375
vn 0.915601 -0.388723 0.102811
vn 0.757981 0.326801 0.564505
vn -0.085975 -0.827704 -0.554540
vn 0.948468 -0.256992 -0.185373
vn -0.231895 -0.690354 -0.685300
vn -0.722590 -0.685102 -0.092191
vn -0.116863 -0.990655 0.070329
vn 0.369041 0.856958 -0.359767
vn 0.458649 0.445332 0.768974
vn -0.150428 0.486896 -0.860409
vn 0.484346 0.176098 -0.856970
vn -0.033665 0.084303 0.995871
vn 0.066337 -0.063681 -0.995763
vn 0.182013 -0.936183 -0.300721
vn -0.114854 -0.224180 -0.967756
vn -0.008561 -0.998609 -0.052026
vn -0.163351 -0.458424 0.873593
vn -0.863918 0.454058 -0.217891
vn -0.303056 -0.935860 0.179786
vn -0.204696 0.193287 -0.959552
vn 0.619896 0.427040 0.658305
vn -0.156771 0.544147 -0.824213
vn -0.007984 0.852692 -0.522353
vn -0.573438 0.455935 -0.680656
vn -0.065180 -0.958506 -0.277520
vn -0.001894 -0.901902 -0.431936
vn 0.148423 0.064206 -0.986838
vn -0.011312 -0.632402 0.774558
vn 0.038155 -0.958037 0.284096
vn -0.838002 0.043360 0.543941
vn 0.648698 0.748873 0.135571
vn 0.702472 0.702865 -0.111863
vn -0.003627 -0.583028 -0.812444
vn 0.695218 0.288835 -0.658214
vn 0.309595 0.471287 0.825857
vn 0.565378 0.735644 -0.373061
vn 0.334220 -0.607656 -0.720452
vn 0.503607 -0.426167 -0.751507
vn 0.841396 -0.072996 0.535467
vn -0.233785 -0.867961 -0.438165
vn 0.054172 0.059102 0.996781
vn 0.309441 0.924278 0.223507
vn -0.389746 -0.767280 0.509293
vn -0.233281 -0.444198 0.865025
vn 0.066555 -0.859053 0.507542
vn -0.333882 -0.911021 -0.242000
vn 0.120530 -0.913993 -0.387414
vn 0.230828 0.953294 -0.194804
vn 0.029079 0.997009 0.071606
vn -0.003627 0.906357 -0.422497
vn 0.087862 0.875090 -0.475919
vn -0.596581 0.501358 -0.626683
vn 0.908559 0.219704 -0.355318
vn -0.246793 -0.358782 0.900205
vn -0.035318 -0.641580 0.766242
vn -0.381439 -0.923722 -0.035233
vn -0.340149 -0.855852 0.389637
vn 0.651453 0.663690 0.367593
vn 0.508120 0.844490 -0.169265
vn -0.010181 0.314335 0.949257
vn -0.259864 0.530996 0.806544
vn 0.043901 -0.962333 0.268307
vn -0.246540 -0.747393 0.616946
vn -0.718821 0.547605 0.428281
vn -0.687946 0.416418 0.594413
vn -0.392585 0.799954 -0.453818
vn -0.196919 0.888890 0.413639
vn -0.388788 0.921255 -0.011564
vn 0.255487 -0.551917 0.793797
vn -0.116945 0.703813 0.700693
vn -0.053228 0.996098 -0.070397
vn 0.353603 0.812553 -0.463381
vn -0.011463 0.315680 0.948797
vn -0.024303 -0.653110 0.756873
vn -0.399115 0.856795 0.326512
vn -0.254291 0.729041 0.635480
vn 0.043662 -0.361464 0.931363
vn -0.159466 -0.130755 0.978506
vn -0.415912 0.376143 0.827970
f 20//1 17//1 22//1
f 26//2 8//2 6//2
f 16//3 15//3 33//3
f 40//4 35//4 42//4
f 4//5 17//5 5//5
f 1//6 45//6 28//6
f 6//7 16//7 26//7
f 6//8 32//8 16//8
f 6//9 9//9 32//9
f 13//10 27//10 11//10
f 11//11 33//11 3//11
f 18//12 5//12 15//12
f 19//13 12//13 10//13
f 13//14 12//14 19//14
f 2//15 29//15 21//15
f 2//16 30//16 29//16
f 7//17 1//17 30//17
f 15//18 5//18 3//18
f 30//19 2//19 27//19
f 3//20 33//20 15//20
f 17//21 4//21 22//21
f 4//22 44//22 47//22
f 7//23 24//23 25//23
f 1//24 25//24 45//24
f 23//25 10//25 12//25
f 27//26 13//26 24//26
f 34//27 14//27 28//27
f 11//28 3//28 12//28
f 21//29 33//29 2//29
f 3//30 5//30 12//30
f 9//31 6//31 8//31
f 9//32 8//32 14//32
f 20//33 36//33 17//33
f 4//34 47//34 22//34
f 5//35 23//35 12//35
f 25//36 1//36 7//36
f 23//37 40//37 10//37
f 13//38 41//38 24//38
f 23//39 5//39 17//39
f 18//40 15//40 32//40
f 18//41 32//41 44//41
f 12//42 13//42 11//42
f 14//43 46//43 9//43
f 9//44 44//44 32//44
f 20//45 22//45 43//45
f 40//46 42//46 38//46
f 40//47 38//47 10//47
f 4//48 5//48 18//48
f 24//49 7//49 27//49
f 45//50 34//50 28//50
f 13//51 19//51 41//51
f 2//52 33//52 11//52
f 2//53 11//53 27//53
f 29//54 30//54 1//54
f 16//55 32//55 15//55
f 14//56 34//56 46//56
f 31//57 34//57 38//57
f 8//58 26//58 37//58
f 8//59 28//59 14//59
f 21//60 29//60 37//60
f 16//61 33//61 21//61
f 4//62 18//62 44//62
f 10//63 39//63 19//63
f 10//64 38//64 39//64
f 24//65 41//65 25//65
f 45//66 25//66 41//66
f 17//67 36//67 23//67
f 7//68 30//68 27//68
f 8//69 37//69 28//69
f 46//70 47//70 9//70
f 16//71 21//71 26//71
f 21//72 37//72 26//72
f 42//73 31//73 38//73
f 41//74 19//74 39//74
f 34//75 31//75 46//75
f 42//76 35//76 31//76
f 9//77 47//77 44//77
f 22//78 47//78 43//78
f 36//79 20//79 48//79
f 20//80 43//80 48//80
f 23//81 36//81 40//81
f 34//82 45//82 38//82
f 40//83 36//83 35//83
f 1//84 37//84 29//84
f 31//85 35//85 49//85
f 39//86 38//86 45//86
f 45//87 41//87 39//87
f 49//88 46//88 31//88
f 46//89 43//89 47//89
f 36//90 48//90 35//90
f 35//91 48//91 49//91
f 1//92 28//92 37//92
f 43//93 46//93 49//93
f 48//94 43//94 49//94
